<svg width="414" height="736" viewBox="0 0 414 736" fill="none" xmlns="http://www.w3.org/2000/svg">
<path d="M206.5 -57C-28.1957 -57 -218 132.804 -218 367.5C-218 602.196 -28.1957 792 206.5 792C441.196 792 631 602.196 631 367.5C631 132.804 440.408 -57 206.5 -57ZM185.236 332.059C185.236 339.935 178.935 346.236 171.059 346.236H128.531C120.655 346.236 114.354 339.935 114.354 332.059V62.7106C-10.0816 100.514 -102.227 211.561 -110.891 346.236C-111.678 353.324 -111.678 360.412 -111.678 367.5C-111.678 374.588 -111.678 381.676 -110.891 388.764C-109.315 410.816 -106.165 432.081 -99.8646 452.558C-71.5121 557.304 10.3952 640.787 114.354 672.29V452.558H-45.5223C-51.8228 452.558 -57.3358 448.62 -58.9109 442.319C-62.0612 430.506 -65.2115 417.905 -66.7866 405.303C-67.5742 396.64 -61.2737 389.552 -52.6104 389.552H171.059C178.935 389.552 185.236 395.853 185.236 403.728V741.596C185.236 750.259 178.147 756.56 169.484 755.772C150.583 754.197 132.468 751.047 114.354 746.321C-28.9833 710.88 -140.818 596.683 -173.109 452.558C-177.834 432.081 -180.984 410.816 -181.772 388.764C-182.559 381.676 -182.559 374.588 -182.559 367.5C-182.559 360.412 -182.559 353.324 -181.772 346.236C-172.321 172.183 -49.4601 28.8451 114.354 -10.5334C132.468 -15.2588 150.583 -17.6215 169.484 -19.9842C178.147 -20.7718 185.236 -14.4712 185.236 -5.80797V332.059ZM586.109 452.558C549.88 614.797 412.056 738.445 243.516 754.197C234.853 754.984 227.764 748.684 227.764 740.021V-6.59554C227.764 -15.2588 234.853 -21.5594 243.516 -20.7718C434.108 -2.65769 584.533 152.494 595.559 345.448C596.347 352.536 596.347 359.624 596.347 366.712C596.347 373.801 596.347 380.889 595.559 387.977C593.984 410.029 590.834 431.293 586.109 452.558Z" fill="#0B7350"/>
</svg>
