<svg width="152" height="30" viewBox="0 0 152 30" fill="none" xmlns="http://www.w3.org/2000/svg">
<path fill-rule="evenodd" clip-rule="evenodd" d="M20.4493 19.8658C20.6478 19.6644 20.714 19.396 20.714 19.0604H20.7802V13.1544C20.7802 12.4832 20.4493 12.1477 19.7875 12.1477H12.3093C11.7137 12.1477 11.4489 12.4832 11.4489 13.0872C11.4489 13.6913 11.7137 13.9597 12.3093 13.9597H18.7948V19.0604C16.8756 21.0067 14.3608 22.0134 11.3828 22.0134C8.40472 22.0134 6.08846 21.0067 4.36781 18.9933C2.77951 17.1141 1.98537 14.698 1.98537 11.8792C1.98537 9.0604 2.77951 6.71141 4.50016 4.83222C6.28699 2.88591 8.53708 1.87919 11.2504 1.87919C13.7652 1.87919 15.9491 2.81879 17.7359 4.56376C17.9345 4.7651 18.133 4.83222 18.4639 4.83222C19.0595 4.83222 19.3904 4.56376 19.3904 3.95973C19.3904 3.69128 19.3242 3.42282 19.1257 3.22148C17.1403 1.07383 14.4932 0 11.3166 0C8.00765 0 5.29431 1.14094 3.17658 3.42282C1.05886 5.7047 0 8.52349 0 11.8792C0 15.1007 0.926503 17.8524 2.77951 20.0671C3.70602 21.2081 4.89724 22.0805 6.287 22.7517C7.74293 23.4228 9.3974 23.7584 11.2504 23.7584C13.1696 23.7584 15.0226 23.3557 16.6771 22.6175C18.1992 21.8792 19.4566 21.0067 20.4493 19.8658ZM87.8856 7.78523H88.1503C92.452 7.91946 94.6359 10.0671 94.702 14.2953V22.349C94.702 23.0201 94.3711 23.3557 93.7094 23.3557C93.0476 23.3557 92.7167 23.0201 92.7167 22.349V21.6107C91.5916 22.8859 89.871 23.557 87.6209 23.557C85.9664 23.557 84.5767 23.1544 83.5178 22.4161C83.4516 22.4161 83.3854 22.349 83.3193 22.2819C82.9222 21.9463 82.5913 21.6107 82.3266 21.2081C81.9295 20.604 81.731 19.8658 81.731 19.0604C81.731 18.1879 81.9295 17.4497 82.3266 16.8456C82.5913 16.3758 82.9222 16.0403 83.3854 15.7047C83.4185 15.7047 83.4351 15.6879 83.4516 15.6711C83.4682 15.6544 83.4847 15.6376 83.5178 15.6376C84.6428 14.8322 86.0988 14.4295 87.9518 14.4295C89.0107 14.4295 90.0033 14.6309 90.8637 15.0336C91.6578 15.3691 92.2534 15.7718 92.7167 16.3087V14.2953C92.7167 11.2752 91.1945 9.66443 88.2165 9.5302H87.7533H87.2238H81.003H80.4736H80.0103C77.0323 9.66443 75.5102 11.2752 75.5102 14.2953V16.3087V16.443V18.8591V19.0604V19.2617V21.6779V22.4161C75.5102 22.7517 75.444 22.953 75.3116 23.1544C75.2785 23.1879 75.2454 23.2047 75.2123 23.2215C75.1793 23.2383 75.1462 23.255 75.1131 23.2886C74.9807 23.3557 74.7822 23.4228 74.5175 23.4228C73.8557 23.4228 73.5248 23.0872 73.5248 22.4161V8.99329C73.5248 8.32214 73.8557 7.98657 74.5175 7.98657C75.2454 7.98657 75.5763 8.32214 75.5763 8.99329V9.12751C76.7014 8.25503 78.1573 7.85235 80.0765 7.78523H80.3412H87.8856ZM87.8194 22.0805C89.0768 22.0805 90.2019 21.8121 91.1284 21.2752C92.1211 20.6711 92.6505 19.9329 92.5843 19.0604C92.5843 18.1879 92.1211 17.4497 91.1284 16.8456C90.2681 16.3087 89.2092 16.0403 87.9518 16.0403C86.4297 16.0403 85.3046 16.3758 84.5767 16.9128C83.9149 17.4497 83.584 18.1879 83.584 19.1275C83.584 20.0671 83.9149 20.8054 84.5767 21.2752C85.3046 21.8121 86.3635 22.0805 87.8194 22.0805ZM38.1852 21.4094C36.7293 22.953 34.8763 23.6913 32.6262 23.6913C30.3761 23.6913 28.5231 22.953 27.0672 21.4094C25.6112 19.8658 24.8833 18.0537 24.8833 15.8389C24.8833 13.6242 25.6112 11.745 27.0672 10.2685C28.5231 8.72483 30.3761 7.98657 32.6262 7.98657C34.8763 7.98657 36.7293 8.72483 38.1852 10.2685C39.6412 11.745 40.3691 13.6242 40.3691 15.8389C40.3691 18.0537 39.6412 19.9329 38.1852 21.4094ZM36.6631 11.4765C35.5381 10.3356 34.2145 9.73154 32.6262 9.73154C31.0379 9.73154 29.6482 10.3356 28.5893 11.4765C27.4643 12.6174 26.9348 14.094 26.9348 15.8389C26.9348 17.5839 27.4643 19.0604 28.5893 20.2013C29.7143 21.3423 31.0379 21.9463 32.6262 21.9463C34.2145 21.9463 35.6043 21.3423 36.6631 20.2013C37.7882 19.0604 38.3176 17.5839 38.3176 15.8389C38.3176 14.094 37.7882 12.6174 36.6631 11.4765ZM45.4649 23.5571C46.1929 23.5571 46.5238 23.2215 46.5238 22.5503V1.14094C46.5238 0.469802 46.1267 0.134232 45.4649 0.134232C44.8031 0.134232 44.4722 0.469802 44.4722 1.14094V22.5503C44.4722 23.2215 44.8031 23.5571 45.4649 23.5571ZM112.306 20.0671C111.048 22.2148 109.063 23.2215 106.35 23.2215C104.232 23.2215 102.445 22.5503 101.055 21.1409C99.5993 19.7315 98.8051 17.8524 98.8051 15.5705C98.8051 13.2886 99.5331 11.4094 101.055 10C102.445 8.59061 104.232 7.91946 106.35 7.91946C107.739 7.91946 108.997 8.25503 110.122 8.92618C111.048 9.5302 111.776 10.2013 112.306 11.0738V9.0604C112.306 8.38926 112.637 8.05369 113.364 8.05369C114.026 8.05369 114.357 8.38926 114.357 9.0604V22.0805C114.357 24.4966 113.762 26.443 112.504 27.7852C111.181 29.2617 109.195 30 106.548 30C105.291 30 104.166 29.8658 103.041 29.5302C102.114 29.2617 101.254 28.9262 100.526 28.4564C100.129 28.255 99.9302 27.9195 99.9302 27.5839C99.9302 27.047 100.195 26.8456 100.724 26.8456C100.923 26.8456 101.254 26.9128 101.585 27.1141C103.107 27.9195 104.761 28.3893 106.548 28.3893C108.533 28.3893 110.056 27.7852 110.982 26.6443C111.842 25.6376 112.306 24.1611 112.306 22.2819V20.0671ZM102.379 19.9329C103.438 21.0067 104.827 21.5436 106.548 21.5436C108.136 21.5436 109.526 20.9396 110.651 19.7987C111.776 18.6577 112.306 17.2483 112.306 15.5705C112.306 13.9597 111.776 12.5503 110.651 11.4094C109.526 10.2013 108.136 9.66443 106.548 9.66443C104.827 9.66443 103.438 10.2013 102.379 11.2752C101.32 12.349 100.79 13.8255 100.79 15.6376C100.79 17.3826 101.32 18.8591 102.379 19.9329ZM126.137 23.6913C128.387 23.6913 130.24 22.953 131.696 21.4094C133.152 19.9329 133.88 18.0537 133.88 15.8389C133.88 13.6242 133.152 11.745 131.696 10.2685C130.24 8.72483 128.387 7.98657 126.137 7.98657C123.887 7.98657 122.034 8.72483 120.578 10.2685C119.122 11.745 118.394 13.6242 118.394 15.8389C118.394 18.0537 119.122 19.8658 120.578 21.4094C122.034 22.953 123.887 23.6913 126.137 23.6913ZM126.137 9.73154C127.725 9.73154 129.049 10.3356 130.174 11.4765C131.299 12.6174 131.828 14.094 131.828 15.8389C131.828 17.5839 131.299 19.0604 130.174 20.2013C129.115 21.3423 127.725 21.9463 126.137 21.9463C124.549 21.9463 123.225 21.3423 122.1 20.2013C120.975 19.0604 120.446 17.5839 120.446 15.8389C120.446 14.094 120.975 12.6174 122.1 11.4765C123.159 10.3356 124.549 9.73154 126.137 9.73154ZM151.947 22.5503C151.947 23.2215 151.616 23.557 150.888 23.557C150.226 23.557 149.895 23.2215 149.895 22.5503V14.8993C149.895 11.5436 148.307 9.86577 145.13 9.86577C143.674 9.86577 142.417 10.3356 141.49 11.3423C140.498 12.349 140.035 13.6913 140.035 15.3691V22.5503C140.035 23.2215 139.704 23.557 138.976 23.557C138.314 23.557 137.983 23.2215 137.983 22.5503V9.12751C137.983 8.45637 138.314 8.1208 138.976 8.1208C139.637 8.1208 140.035 8.45637 140.035 9.12751V10.9396C141.16 8.99328 143.013 7.98657 145.594 7.98657C147.513 7.98657 149.101 8.65771 150.226 9.93288C151.351 11.208 151.947 12.8859 151.947 14.8993V22.5503ZM58.1713 0.335571C61.5464 0.335571 64.2597 1.47651 66.3775 3.69128C68.3628 5.83893 69.4217 8.59061 69.4217 11.745C69.4217 14.9664 68.429 17.7181 66.3775 19.8658C64.2597 22.0805 61.5464 23.2215 58.1713 23.2215H51.6857C51.0239 23.2215 50.693 22.8859 50.693 22.2148V1.34228C50.693 0.671142 51.0239 0.335571 51.6857 0.335571H58.1713ZM64.3259 12.4161C64.9215 11.8792 65.3186 11.0738 65.451 10.1342C65.451 10.0248 65.458 9.91528 65.4652 9.80347C65.48 9.57256 65.4955 9.33172 65.451 9.0604C65.451 8.12081 65.3186 7.31544 64.9877 6.6443C64.6568 5.97316 64.1935 5.43624 63.5318 5.10067C63.267 4.89933 62.87 4.7651 62.4729 4.69799C62.0758 4.63087 61.5464 4.56376 60.8846 4.56376H52.6784V7.51678H59.561C60.3552 7.51678 60.9508 7.65101 61.2155 7.85235C61.4802 8.12081 61.6126 8.45638 61.6126 8.99329C61.6126 9.46309 61.4802 9.86577 61.2155 10.0671C60.8846 10.2685 60.3552 10.4027 59.561 10.4027H57.6418C56.4506 10.4027 55.4579 10.604 54.73 10.8725L54.7298 10.8726C54.399 11.0739 54.0681 11.2752 53.8034 11.4765C53.0755 12.1477 52.6784 13.2886 52.6784 14.8993V19.4631H60.0905C62.142 19.4631 63.5318 18.9933 64.3259 17.9195C64.5906 17.5839 64.7892 17.1141 64.9877 16.5101H56.3182V15.3691C56.3182 14.698 56.5168 14.2282 56.7815 13.9597C57.0462 13.6913 57.5757 13.557 58.3698 13.557H61.017C62.4729 13.557 63.5318 13.1544 64.3259 12.4161Z" fill="url(#paint0_linear_841_16)"/>
<defs>
<linearGradient id="paint0_linear_841_16" x1="105.5" y1="-22.2211" x2="43.7789" y2="39.5" gradientUnits="userSpaceOnUse">
<stop stop-color="#DA9101"/>
<stop offset="0.20625" stop-color="#FEC201"/>
<stop offset="0.602083" stop-color="#FFDB65"/>
<stop offset="1" stop-color="#BE8B08"/>
</linearGradient>
</defs>
</svg>
