<svg width="1044" height="800" viewBox="0 0 1044 800" fill="none" xmlns="http://www.w3.org/2000/svg">
<path d="M522 -97C233.399 -97 0 136.399 0 425C0 713.601 233.399 947 522 947C810.601 947 1044 713.601 1044 425C1044 136.399 809.633 -97 522 -97ZM495.852 381.419C495.852 391.104 488.104 398.852 478.419 398.852H426.122C416.438 398.852 408.69 391.104 408.69 381.419V50.2059C255.673 96.692 142.364 233.245 131.711 398.852C130.742 407.568 130.742 416.284 130.742 425C130.742 433.716 130.742 442.432 131.711 451.148C133.648 478.265 137.521 504.414 145.269 529.594C180.134 658.399 280.853 761.056 408.69 799.794V529.594H212.093C204.345 529.594 197.566 524.751 195.629 517.004C191.755 502.477 187.881 486.982 185.944 471.486C184.976 460.833 192.724 452.117 203.377 452.117H478.419C488.104 452.117 495.852 459.865 495.852 469.549V885.019C495.852 895.672 487.135 903.419 476.482 902.451C453.239 900.514 430.965 896.64 408.69 890.829C232.43 847.249 94.9091 706.822 55.2022 529.594C49.3915 504.414 45.5176 478.265 44.5492 451.148C43.5807 442.432 43.5807 433.716 43.5807 425C43.5807 416.284 43.5807 407.568 44.5492 398.852C56.1707 184.822 207.25 8.56216 408.69 -39.8608C430.965 -45.6716 453.239 -48.577 476.482 -51.4824C487.135 -52.4508 495.852 -44.7032 495.852 -34.0501V381.419ZM988.798 529.594C944.249 729.096 774.768 881.145 567.518 900.514C556.865 901.482 548.148 893.735 548.148 883.082V-35.0185C548.148 -45.6716 556.865 -53.4193 567.518 -52.4508C801.885 -30.1762 986.861 160.61 1000.42 397.883C1001.39 406.599 1001.39 415.315 1001.39 424.032C1001.39 432.748 1001.39 441.464 1000.42 450.18C998.482 477.297 994.609 503.445 988.798 529.594Z" fill="#0D8059"/>
</svg>
